<svg xmlns="http://www.w3.org/2000/svg" width="900" height="500" viewBox="0 0 900 500">

  <rect width="900" height="500" rx="12" fill="#0d1117" stroke="#30363d" stroke-width="1"/>

  <text x="450" y="38" text-anchor="middle" fill="#f0f6fc" font-size="20" font-weight="bold" font-family="Arial, sans-serif">AutoPilot</text>
  <text x="450" y="58" text-anchor="middle" fill="#8b949e" font-size="12" font-family="Arial, sans-serif">spec in  ·  built project + github repo + tweets out</text>

  <text x="300" y="90" text-anchor="middle" fill="#58a6ff" font-size="14" font-weight="bold" font-family="Arial, sans-serif">BUILD MODE</text>

  <rect x="30" y="185" width="110" height="50" rx="25" fill="none" stroke="#ff9f1c" stroke-width="2"/>
  <text x="85" y="207" text-anchor="middle" fill="#ff9f1c" font-size="12" font-weight="bold" font-family="Arial, sans-serif">YOU</text>
  <text x="85" y="222" text-anchor="middle" fill="#8b949e" font-size="9" font-family="Arial, sans-serif">write spec.md</text>

  <line x1="140" y1="210" x2="193" y2="210" stroke="#484f58" stroke-width="1.5"/>
  <polygon points="193,205 203,210 193,215" fill="#484f58"/>

  <rect x="200" y="105" width="130" height="48" rx="8" fill="#161b22" stroke="#58a6ff" stroke-width="1.5"/>
  <text x="265" y="127" text-anchor="middle" fill="#58a6ff" font-size="11" font-weight="bold" font-family="Arial, sans-serif">1. PLAN</text>
  <text x="265" y="142" text-anchor="middle" fill="#8b949e" font-size="9" font-family="Arial, sans-serif">pick 2-4 features</text>

  <rect x="200" y="185" width="130" height="48" rx="8" fill="#161b22" stroke="#58a6ff" stroke-width="1.5"/>
  <text x="265" y="207" text-anchor="middle" fill="#58a6ff" font-size="11" font-weight="bold" font-family="Arial, sans-serif">2. BUILD</text>
  <text x="265" y="222" text-anchor="middle" fill="#8b949e" font-size="9" font-family="Arial, sans-serif">codex / claude</text>

  <rect x="200" y="265" width="130" height="48" rx="8" fill="#161b22" stroke="#56d364" stroke-width="1.5"/>
  <text x="265" y="287" text-anchor="middle" fill="#56d364" font-size="11" font-weight="bold" font-family="Arial, sans-serif">3. TEST</text>
  <text x="265" y="302" text-anchor="middle" fill="#8b949e" font-size="9" font-family="Arial, sans-serif">every 2 iterations</text>

  <line x1="265" y1="153" x2="265" y2="182" stroke="#484f58" stroke-width="1.5"/>
  <polygon points="260,179 265,189 270,179" fill="#484f58"/>
  <line x1="265" y1="233" x2="265" y2="262" stroke="#484f58" stroke-width="1.5"/>
  <polygon points="260,259 265,269 270,259" fill="#484f58"/>

  <line x1="330" y1="289" x2="393" y2="289" stroke="#484f58" stroke-width="1.5"/>
  <polygon points="393,284 403,289 393,294" fill="#484f58"/>

  <rect x="400" y="265" width="130" height="48" rx="8" fill="#161b22" stroke="#56d364" stroke-width="1.5"/>
  <text x="465" y="287" text-anchor="middle" fill="#56d364" font-size="11" font-weight="bold" font-family="Arial, sans-serif">4. PUSH</text>
  <text x="465" y="302" text-anchor="middle" fill="#8b949e" font-size="9" font-family="Arial, sans-serif">commit + github</text>

  <line x1="465" y1="265" x2="465" y2="236" stroke="#484f58" stroke-width="1.5"/>
  <polygon points="460,239 465,229 470,239" fill="#484f58"/>

  <rect x="400" y="185" width="130" height="48" rx="8" fill="#161b22" stroke="#ff9f1c" stroke-width="1.5"/>
  <text x="465" y="207" text-anchor="middle" fill="#ff9f1c" font-size="11" font-weight="bold" font-family="Arial, sans-serif">5. TWEET</text>
  <text x="465" y="222" text-anchor="middle" fill="#8b949e" font-size="9" font-family="Arial, sans-serif">share progress</text>

  <line x1="465" y1="185" x2="465" y2="156" stroke="#484f58" stroke-width="1.5"/>
  <polygon points="460,159 465,149 470,159" fill="#484f58"/>

  <rect x="400" y="105" width="130" height="48" rx="8" fill="#161b22" stroke="#484f58" stroke-width="1.5"/>
  <text x="465" y="127" text-anchor="middle" fill="#8b949e" font-size="11" font-weight="bold" font-family="Arial, sans-serif">6. WAIT</text>
  <text x="465" y="142" text-anchor="middle" fill="#6e7681" font-size="9" font-family="Arial, sans-serif">120s cooldown</text>

  <path d="M 400 129 L 355 129 Q 340 129 340 114 L 340 108 Q 340 100 330 100 L 300 100" fill="none" stroke="#ff6b35" stroke-width="2" stroke-dasharray="6,3"/>
  <polygon points="303,95 293,100 303,105" fill="#ff6b35"/>
  <text x="370" y="93" text-anchor="middle" fill="#ff6b35" font-size="10" font-weight="bold" font-family="Arial, sans-serif">LOOP</text>

  <line x1="590" y1="80" x2="590" y2="430" stroke="#21262d" stroke-width="1" stroke-dasharray="4,4"/>

  <text x="740" y="90" text-anchor="middle" fill="#a78bfa" font-size="14" font-weight="bold" font-family="Arial, sans-serif">GROWTH MODE</text>

  <rect x="670" y="110" width="140" height="42" rx="8" fill="#161b22" stroke="#a78bfa" stroke-width="1.5"/>
  <text x="740" y="136" text-anchor="middle" fill="#a78bfa" font-size="11" font-weight="bold" font-family="Arial, sans-serif">DISCOVER</text>

  <rect x="670" y="168" width="140" height="42" rx="8" fill="#161b22" stroke="#a78bfa" stroke-width="1.5"/>
  <text x="740" y="194" text-anchor="middle" fill="#a78bfa" font-size="11" font-weight="bold" font-family="Arial, sans-serif">POST</text>

  <rect x="670" y="226" width="140" height="42" rx="8" fill="#161b22" stroke="#a78bfa" stroke-width="1.5"/>
  <text x="740" y="252" text-anchor="middle" fill="#a78bfa" font-size="11" font-weight="bold" font-family="Arial, sans-serif">ENGAGE</text>

  <rect x="670" y="284" width="140" height="42" rx="8" fill="#161b22" stroke="#a78bfa" stroke-width="1.5"/>
  <text x="740" y="310" text-anchor="middle" fill="#a78bfa" font-size="11" font-weight="bold" font-family="Arial, sans-serif">LEARN</text>

  <line x1="740" y1="152" x2="740" y2="165" stroke="#484f58" stroke-width="1.5"/>
  <polygon points="735,162 740,172 745,162" fill="#484f58"/>
  <line x1="740" y1="210" x2="740" y2="223" stroke="#484f58" stroke-width="1.5"/>
  <polygon points="735,220 740,230 745,220" fill="#484f58"/>
  <line x1="740" y1="268" x2="740" y2="281" stroke="#484f58" stroke-width="1.5"/>
  <polygon points="735,278 740,288 745,278" fill="#484f58"/>

  <rect x="660" y="345" width="160" height="55" rx="8" fill="#0d1117" stroke="#21262d" stroke-width="1"/>
  <text x="740" y="366" text-anchor="middle" fill="#6e7681" font-size="9" font-weight="bold" font-family="Arial, sans-serif">PLATFORMS</text>
  <text x="740" y="384" text-anchor="middle" fill="#8b949e" font-size="10" font-family="Arial, sans-serif">Twitter  Reddit  HN</text>
  <text x="740" y="398" text-anchor="middle" fill="#8b949e" font-size="10" font-family="Arial, sans-serif">Dev.to  LinkedIn</text>

  <line x1="740" y1="326" x2="740" y2="342" stroke="#484f58" stroke-width="1.5"/>
  <polygon points="735,339 740,349 745,339" fill="#484f58"/>

  <rect x="40" y="430" width="820" height="50" rx="8" fill="#161b22" stroke="#21262d" stroke-width="1"/>
  <text x="60" y="452" fill="#6e7681" font-size="9" font-weight="bold" font-family="Arial, sans-serif">CONFIG</text>
  <text x="120" y="452" fill="#58a6ff" font-size="10" font-weight="bold" font-family="Arial, sans-serif">program.md</text>
  <text x="228" y="452" fill="#484f58" font-size="10" font-family="Arial, sans-serif">|</text>
  <text x="248" y="452" fill="#56d364" font-size="10" font-weight="bold" font-family="Arial, sans-serif">build_program.md</text>
  <text x="392" y="452" fill="#484f58" font-size="10" font-family="Arial, sans-serif">|</text>
  <text x="412" y="452" fill="#ff9f1c" font-size="10" font-weight="bold" font-family="Arial, sans-serif">personality.md</text>
  <text x="560" y="452" fill="#8b949e" font-size="9" font-family="Arial, sans-serif">edit these to customize all behavior</text>
  <text x="60" y="470" fill="#8b949e" font-size="9" font-family="Arial, sans-serif">growth strategy</text>
  <text x="248" y="470" fill="#8b949e" font-size="9" font-family="Arial, sans-serif">build rules + testing</text>
  <text x="412" y="470" fill="#8b949e" font-size="9" font-family="Arial, sans-serif">voice + tone</text>

</svg>
